<svg width="512" height="512" viewBox="0 0 512 512" fill="none" xmlns="http://www.w3.org/2000/svg">
<!-- Base dark green color #064e3b -->
<path fill-rule="evenodd" clip-rule="evenodd" d="M256 0C114.615 0 0 114.615 0 256C0 397.385 114.615 512 256 512C397.385 512 512 397.385 512 256C512 114.615 397.385 0 256 0ZM256 460C143.334 460 52 368.666 52 256C52 143.334 143.334 52 256 52C368.666 52 460 143.334 460 256C460 368.666 368.666 460 256 460Z" fill="#064e3b" />
<path d="M256 94.5C214.288 94.5 178.618 119.897 161.42 155.882C179.314 145.47 200.088 139.5 222.5 139.5C286.013 139.5 337.5 190.987 337.5 254.5C337.5 277.632 330.687 299.168 319.167 317.585C352.091 298.59 373.5 262.247 373.5 220C373.5 150.688 317.312 94.5 256 94.5Z" fill="#064e3b" />
<path d="M124.5 329.5C124.5 293.601 153.601 264.5 189.5 264.5C225.399 264.5 254.5 293.601 254.5 329.5C254.5 365.399 225.399 394.5 189.5 394.5C153.601 394.5 124.5 365.399 124.5 329.5Z" fill="#064e3b" />
<path d="M239.5 239.5C239.5 203.601 268.601 174.5 304.5 174.5C340.399 174.5 369.5 203.601 369.5 239.5C369.5 275.399 340.399 304.5 304.5 304.5C268.601 304.5 239.5 275.399 239.5 239.5Z" fill="#064e3b" />
<path fill-rule="evenodd" clip-rule="evenodd" d="M174.5 440C157.103 440 143 425.897 143 408.5C143 391.103 157.103 377 174.5 377C191.897 377 206 391.103 206 408.5C206 425.897 191.897 440 174.5 440ZM337.5 440C320.103 440 306 425.897 306 408.5C306 391.103 320.103 377 337.5 377C354.897 377 369 391.103 369 408.5C369 425.897 354.897 440 337.5 440ZM256 363.5C228.662 363.5 206.5 341.338 206.5 314C206.5 286.662 228.662 264.5 256 264.5C283.338 264.5 305.5 286.662 305.5 314C305.5 341.338 283.338 363.5 256 363.5Z" fill="#064e3b" />
<path d="M410.5 401C410.5 365 381 336 345 336H307.382C318.892 346.521 326.5 361.644 326.5 378.5V401H410.5Z" fill="#064e3b" />
<path d="M204.618 336H167C131 336 101.5 365 101.5 401H185.5V378.5C185.5 361.644 193.108 346.521 204.618 336Z" fill="#064e3b" />
<path d="M304.5 401H207.5V378.5C207.5 351.714 229.214 330 256 330C282.786 330 304.5 351.714 304.5 378.5V401Z" fill="#064e3b" />
</svg>
